# xmcd CD database file generated by Grip 3.2.0
# 
# Track frame offsets:
#       150
#       20887
#       41350
#       65450
#       82912
#       101650
#       119475
#       136187
#       149212
#       166480
#       187602
#       206107
#       233405
#       249760
#       272902
# 
# Disc length: 4112 seconds
# 
# Revision: 2
# Processed by: cddbd v1.5.2PL0 Copyright (c) Steve Scherf et al.
# Submitted via: Grip 3.2.0
# 
DISCID=cf100e0f
DTITLE=Various Artist - Blues Rarities (The Whiskey Collection)
DYEAR=1997
DGENRE=Blues
TTITLE0=Blues and Boogie Explosion - The Fish
TTITLE1=Brian Auger - Pete York - Chris Farlowe - Everything's Wrong
TTITLE2=Blues and Boogie Explosion - Old Bill
TTITLE3=Brian Auger - Pete York - Chris Farlowe - I Never Loved a Girl
TTITLE4=Blues and Boogie Explosion - I Need You
TTITLE5=Blues and Boogie Explosion - Night Train
TTITLE6=Paul Millns - Bring It on Home to Me
TTITLE7=Bob Hall - After Hours Blues
TTITLE8=Blues and Boogie Explosion - Chicken Shack Boogie
TTITLE9=Chris Barber - Who's Blues
TTITLE10=Paul Millns - Down in the Danger Zone
TTITLE11=Sammy Vomácka - Love in Vain
TTITLE12=Bill Ramsey - Toots Thielemans - I'd Rather Be a Gambler
TTITLE13=Chris Barber - The Weight
TTITLE14=Chris Barber - Snag It
EXTD=
EXTT0=
EXTT1=
EXTT2=
EXTT3=
EXTT4=
EXTT5=
EXTT6=
EXTT7=
EXTT8=
EXTT9=
EXTT10=
EXTT11=
EXTT12=
EXTT13=
EXTT14=
PLAYORDER=
